<?xml version="1.0" encoding="UTF-8"?>
<!DOCTYPE svg PUBLIC "-//W3C//DTD SVG 1.1//EN" "http://www.w3.org/Graphics/SVG/1.1/DTD/svg11.dtd">
<!-- Creator: CorelDRAW -->
<svg xmlns="http://www.w3.org/2000/svg" xml:space="preserve" width="119mm" height="41mm" style="shape-rendering:geometricPrecision; text-rendering:geometricPrecision; image-rendering:optimizeQuality; fill-rule:evenodd; clip-rule:evenodd"
viewBox="0 0 112.75 38.8466"
 xmlns:xlink="http://www.w3.org/1999/xlink">
 <defs>
  <style type="text/css">
   <![CDATA[
    .fil1 {fill:none}
    .fil0 {fill:#F4F4F4}
   ]]>
  </style>
 </defs>
 <g id="Capa_x0020_1">
  <metadata id="CorelCorpID_0Corel-Layer"/>
  <g id="_399127744">
   <path id="_483084296" class="fil0" d="M36.4243 14.6771c-0.120424,0 -0.241228,0.0115592 -0.3608,0.0115592 -2.43758,0.129804 -4.08145,1.20254 -5.04276,3.29751 -0.822127,1.89458 -0.7324,4.3709 0.00928528,6.27723 0.862205,1.86255 2.25576,2.84556 4.58143,3.21688 0.492215,0.0804409 0.822221,0.350756 1.77538,1.46357l1.1726 1.37394 2.1268 0 -1.41411 -1.42576c-0.781764,-0.781764 -1.41421,-1.46243 -1.41421,-1.52231 0,-0.0596911 0.299119,-0.190633 0.661434,-0.301108 1.19316,-0.361084 2.18422,-1.28317 2.87749,-2.69605 0.561002,-1.13479 0.641632,-1.48555 0.722073,-2.8972 0.210245,-4.20225 -2.00515,-6.82952 -5.69463,-6.79948l0 0.00123172 0 0zm1.86492 10.989c-1.03474,0.501121 -2.53735,0.601175 -3.51808,0.241323 -1.01409,-0.372454 -1.99596,-1.42558 -2.43748,-2.61779 -0.490888,-1.30373 -0.420775,-3.7089 0.140321,-4.79215 0.902473,-1.7245 2.09601,-2.51773 3.83994,-2.51773 2.58699,0 4.05862,1.58428 4.25048,4.56201 0.151975,2.48561 -0.680573,4.35053 -2.27404,5.1232l-0.00113697 0.00113697 0 0zm36.7426 -7.39971c-0.892145,0 -1.57509,0.361273 -2.03499,1.07264l-0.361084 0.563655 0 -1.46499 -1.5441 0 0 8.78388 1.54297 0 0 -2.80747c0,-2.56748 0.0321195,-2.86764 0.390929,-3.57 0.673562,-1.31235 1.47911,-1.41477 2.71917,-1.05303l0 -1.52222 -0.712882 0 0 -0.00246344zm-9.07125 -0.0805356c-0.302435,0 -0.623251,0.0403626 -0.942646,0.110665 -2.06607,0.540157 -3.23099,2.51764 -3.15955,4.55263 0,1.70404 0.331049,2.55582 1.15318,3.4492 1.68443,1.3819 3.20778,1.49247 5.26343,0.750781 0.350662,-0.149417 0.7324,-0.321953 0.7324,-0.321953l0 -1.3818 -0.7324 0.379465c-1.66377,0.724252 -2.91691,0.724252 -3.92076,-0.128857 -0.640211,-0.651865 -0.921991,-1.43372 -1.0518,-2.32587l6.22569 0 0 -1.18435c0,-2.41436 -1.45315,-3.93886 -3.56877,-3.89991l0.00123172 0zm-2.51811 3.85169c0,0 0.230237,-1.50602 1.08325,-2.09705 0.410637,-0.289739 0.881818,-0.43006 1.34296,-0.43006 0.46218,0 0.923128,0.149417 1.30373,0.440482 0.781859,0.601175 0.912705,2.07517 0.912705,2.07517l-4.64236 0 0 0.0114645 -0.000284243 0zm-37.2241 -1.58418c-1.67381,-1.01399 -2.41673,-1.74544 -2.32596,-2.60774 0.259893,-2.38575 3.20778,-2.05574 4.84047,-1.15308l0.0115592 -1.60493c0,0 -0.902662,-0.390929 -2.19606,-0.411679 -1.9844,-0.0298456 -3.26757,0.620882 -3.86874,1.94536 -0.883049,1.95455 -0.101096,3.42835 2.72495,5.07261 1.58655,0.923222 2.28787,1.7246 2.28787,2.59817 0,1.80523 -2.17645,2.43511 -4.42178,1.30269 -0.46218,-0.229953 -0.853014,-0.421817 -0.873669,-0.421817 -0.0805356,0.511543 -0.0392256,1.73597 -0.0392256,1.73597 0,0 0.690048,0.289739 1.7246,0.489562 2.56605,0.511638 4.9013,-0.692038 5.12197,-2.6465 0.192243,-1.83489 -0.471465,-2.79733 -2.98588,-4.29994l-9.47478e-005 0.00132647 0 0zm62.479 -2.28797c-0.301298,0 -0.620882,0.04131 -0.954489,0.111423 -2.06351,0.540347 -3.22607,2.51783 -3.14667,4.55301 0,1.70158 0.329912,2.54549 1.15204,3.43754 1.68443,1.38313 3.20778,1.49465 5.27376,0.751824 0.349525,-0.149133 0.730316,-0.3193 0.730316,-0.3193l0 -1.38417 -0.731263 0.381455c-1.66728,0.721978 -2.92041,0.721978 -3.92066,-0.130941 -0.643906,-0.650728 -0.923128,-1.4234 -1.05312,-2.32587l6.21527 0 0 -1.18435c0,-2.4029 -1.45324,-3.92853 -3.56868,-3.88826l0.00350567 -0.00236869zm-2.51792 3.85159c0,0 0.232322,-1.50393 1.0842,-2.10643 0.40931,-0.290781 0.880586,-0.431197 1.34163,-0.431197 0.459906,0 0.923317,0.149417 1.30392,0.441525 0.781859,0.601364 0.912895,2.08559 0.912895,2.08559l-4.64132 0 -0.00132647 0.010517zm-28.3014 -1.5441c-1.67391,-1.01181 -2.41446,-1.74544 -2.32483,-2.60774 0.259988,-2.38689 3.20788,-2.05555 4.84038,-1.15289l0.011654 -1.60512c0,0 -0.902662,-0.390835 -2.19616,-0.409405 -1.9844,-0.0298456 -3.26738,0.620977 -3.86978,1.94536 -0.881818,1.95436 -0.0897262,3.42835 2.72694,5.07251 1.58456,0.922085 2.28579,1.71313 2.28579,2.5868 0,1.80504 -2.17531,2.44572 -4.42065,1.30269 -0.459906,-0.230048 -0.85074,-0.419733 -0.873669,-0.419733 -0.0805356,0.511354 -0.0391308,1.73606 -0.0391308,1.73606 0,0 0.681805,0.279506 1.71313,0.489846 2.56833,0.512775 4.90452,-0.689953 5.12424,-2.64451 0.190727,-1.8256 -0.47137,-2.78786 -2.97792,-4.29179l0 -0.00208445 0 0zm39.8917 -2.22705c-0.89224,0 -1.58305,0.362126 -2.03499,1.07397l-0.361084 0.560907 0 -1.46243 -1.5442 0 0 8.78151 1.54306 0 0 -2.80747c0,-2.56634 0.0309825,-2.86754 0.390929,-3.56886 0.494489,-0.962259 1.34513,-1.44386 2.16726,-1.21277l0.551716 0.160787 0 -1.52563 -0.712693 0 0 0zm-52.1706 2.17636l0 -5.59457 -1.5568 0 0 12.3918 6.54679 0 0 -1.46366 -4.98999 0 0 -5.33354 0 0zm35.9998 1.74412l-1.28289 3.33872 -1.2339 -3.3572 -1.25313 -3.72037 -1.59337 0c1.03247,2.92723 2.15551,5.90487 3.28813,8.79193 0.490983,0.0113697 0.982914,0 1.4738,0l1.73265 -4.35063 1.76477 -4.44017 -1.52317 0c0,0 -0.672804,1.76364 -1.37384,3.73884l0.000947478 -0.00113697zm-32.4126 -10.7154c0.250608,0 0.459811,-0.0803461 0.632347,-0.252977 0.170072,-0.170072 0.259609,-0.370085 0.259609,-0.620788 0,-0.250513 -0.0895367,-0.459906 -0.259609,-0.620977 -0.172536,-0.160787 -0.371506,-0.241323 -0.621072,-0.241323 -0.252692,0 -0.46199,0.0805356 -0.632252,0.250513 -0.172346,0.170357 -0.250513,0.37956 -0.250513,0.620977 0,0.253071 0.0803461,0.46218 0.250513,0.620882 0.161071,0.160882 0.37018,0.241417 0.620977,0.241417l0 0.00227395 0 0zm-0.551811 -1.42567c0.149323,-0.149323 0.331144,-0.218488 0.563276,-0.218488 0.218488,0 0.400215,0.0691659 0.552095,0.218488 0.149323,0.149607 0.229763,0.331144 0.229763,0.551906 0,0.220762 -0.0804409,0.411679 -0.229763,0.561096 -0.151881,0.149417 -0.333607,0.220668 -0.552095,0.220668 -0.221899,0 -0.402394,-0.0689764 -0.551811,-0.220668 -0.149512,-0.149417 -0.229953,-0.340334 -0.229953,-0.561096 0,-0.220762 0.0689764,-0.402204 0.218488,-0.551906zm0.371222 0.632441l0.101285 0c0.0712503,0 0.141364,0.0688816 0.201055,0.200107l0.120898 0.271168 0.18959 0 -0.149417 -0.301203c-0.0608281,-0.120614 -0.120709,-0.190822 -0.190727,-0.210435 0.0883049,-0.0207498 0.158513,-0.0505006 0.209203,-0.110476 0.0504058,-0.0516375 0.0688816,-0.121846 0.0688816,-0.201055 0,-0.0920001 -0.0287086,-0.160976 -0.0896314,-0.211667 -0.0690711,-0.0573224 -0.179452,-0.0883997 -0.321953,-0.0883997l-0.319584 0 0 1.12324 0.160882 0 0 -0.471275 0.019518 0 0 0zm0 -0.521966l0.140227 0c0.10138,0 0.172536,0.020655 0.211761,0.0505953 0.0378044,0.0298456 0.0481319,0.0688816 0.0481319,0.140321 0,0.12971 -0.0804409,0.190727 -0.229858,0.190727l-0.172346 0 0 -0.381644 0.00208445 0zm-25.7145 0.421912c0,-0.391024 -0.0114645,-0.68171 -0.020655,-0.853109l0.00919054 0c0.0402678,0.202287 0.0896314,0.352936 0.129899,0.453084l1.49455 3.33863 0.250703 0 1.49455 -3.36866c0.0404573,-0.0918106 0.0805356,-0.229858 0.130089,-0.421912l0.0113697 0c-0.0297508,0.333512 -0.0401731,0.623251 -0.0401731,0.854246l0 2.94675 0.511543 0 0 -4.38047 -0.641537 0 -1.37394 3.0468c-0.0505953,0.120614 -0.120709,0.301298 -0.21034,0.540347l-0.0207498 0c-0.0299403,-0.11834 -0.100054,-0.299024 -0.200013,-0.519692l-1.34296 -3.07779 -0.681616 0 0 4.38028 0.492025 0 0 -2.93623 0.00805356 -0.00227395zm5.09194 0.00814831l0.441619 0 0 2.72826 -0.441619 0 0 -2.72826zm0.220952 -1.00025c0.0919054,0 0.170167,-0.0312668 0.229953,-0.0919054 0.0609228,-0.0599753 0.101285,-0.138048 0.101285,-0.229953 0,-0.0898209 -0.030035,-0.170262 -0.100054,-0.230048 -0.0620598,-0.0608281 -0.141364,-0.0920948 -0.232322,-0.0920948 -0.0895367,0 -0.170167,0.0312668 -0.230048,0.0920948 -0.0606386,0.0597859 -0.101191,0.140227 -0.101191,0.230048 0,0.0999589 0.0312668,0.169978 0.101191,0.229953 0.0692606,0.0606386 0.140511,0.0919054 0.230048,0.0919054l0.00113697 0zm3.36876 3.7883l0 -0.480656c-0.241607,0.180495 -0.5015,0.270315 -0.7703,0.270315 -0.321858,0 -0.583173,-0.110381 -0.7739,-0.321858 -0.18959,-0.209298 -0.290781,-0.500458 -0.290781,-0.862489 0,-0.37937 0.101191,-0.680668 0.310394,-0.910526 0.20115,-0.220762 0.46218,-0.331144 0.781859,-0.331144 0.26103,0 0.511354,0.0806304 0.742728,0.241607l0 -0.511638c-0.21034,-0.110476 -0.45062,-0.160976 -0.722073,-0.160976 -0.501311,0 -0.891956,0.160976 -1.18416,0.471465 -0.289739,0.310394 -0.439156,0.732306 -0.439156,1.24167 0,0.452705 0.129899,0.833686 0.40012,1.12456 0.28159,0.298929 0.641727,0.450526 1.08316,0.450526 0.341282,-0.00938003 0.620503,-0.0806304 0.86211,-0.220857l0 0zm1.26346 -1.45447c0,-0.359757 0.0804409,-0.650633 0.229953,-0.850835 0.140321,-0.180495 0.310489,-0.271263 0.511638,-0.271263 0.170167,0 0.290876,0.0309825 0.379275,0.101191l0 -0.521871c-0.0689764,-0.0299403 -0.16903,-0.0402678 -0.298835,-0.0402678 -0.180589,0 -0.341376,0.0606386 -0.482835,0.172441 -0.149417,0.118245 -0.268989,0.298929 -0.339102,0.528882l-0.0114645 -9.47478e-005 0 -0.6404 -0.500363 0 0 3.12725 0.5015 0 0 -1.60503 0.0102328 0zm2.87768 1.66709c0.47156,0 0.850835,-0.151786 1.13262,-0.452989 0.280359,-0.299119 0.420585,-0.701323 0.420585,-1.20273 0,-0.511449 -0.128667,-0.902473 -0.39074,-1.19344 -0.259893,-0.290686 -0.620977,-0.431102 -1.09235,-0.431102 -0.471465,0 -0.850835,0.140321 -1.13243,0.411679 -0.301393,0.298929 -0.460001,0.720936 -0.460001,1.26242 0,0.471465 0.128857,0.862394 0.400215,1.15318 0.280453,0.301203 0.65177,0.451852 1.12229,0.451852l0 0.00113697 -0.000189496 0zm-0.712882 -2.54767c0.190917,-0.201339 0.441714,-0.301487 0.752013,-0.301487 0.321953,0 0.56337,0.100148 0.742728,0.301487 0.180589,0.21034 0.270315,0.510501 0.270315,0.911663 0,0.381549 -0.0806304,0.681805 -0.250703,0.882955 -0.170167,0.210435 -0.420775,0.322048 -0.751918,0.322048 -0.321953,0 -0.571519,-0.111708 -0.762435,-0.322048 -0.189496,-0.211572 -0.280453,-0.501405 -0.280453,-0.882955 -0.019518,-0.379465 0.0805356,-0.689764 0.280453,-0.911663zm4.4611 2.27527c0.190727,-0.170167 0.292013,-0.379275 0.292013,-0.641727 0,-0.229953 -0.0805356,-0.42068 -0.230048,-0.571424 -0.121751,-0.120519 -0.310299,-0.229858 -0.582699,-0.340145 -0.241607,-0.101096 -0.391024,-0.190822 -0.47156,-0.261125 -0.0804409,-0.0803461 -0.129899,-0.180305 -0.129899,-0.321858 0,-0.129899 0.0505953,-0.229858 0.149607,-0.310299 0.101096,-0.0804409 0.229858,-0.119572 0.402394,-0.119572 0.270126,0 0.501216,0.0711556 0.712693,0.222184l0 -0.5015c-0.202287,-0.101096 -0.422007,-0.149512 -0.67252,-0.149512 -0.321858,0 -0.593405,0.0885892 -0.793418,0.259798 -0.210435,0.170262 -0.310394,0.391214 -0.310394,0.650728 0,0.230142 0.0688816,0.42087 0.199918,0.561096 0.110381,0.119572 0.299119,0.241512 0.561191,0.350567 0.250608,0.110476 0.420775,0.21034 0.511543,0.290876 0.0896314,0.0805356 0.129899,0.1804 0.129899,0.299024 0,0.291823 -0.199823,0.442851 -0.590942,0.442851 -0.301203,0 -0.571234,-0.0991062 -0.812936,-0.299119l0 0.540157c0.218488,0.13132 0.480656,0.191012 0.770394,0.191012 0.371317,-0.0196128 0.662192,-0.110476 0.8623,-0.290876l0.00246344 -0.00113697 0 0zm2.38679 -3.00786c-0.47156,0 -0.85093,0.140416 -1.13243,0.411679 -0.298929,0.299119 -0.460001,0.721031 -0.460001,1.26251 0,0.471465 0.129994,0.862394 0.40012,1.15318 0.281685,0.301108 0.651865,0.451757 1.12324,0.451757 0.482929,0 0.850835,-0.151691 1.13252,-0.452989 0.281685,-0.298929 0.422007,-0.701228 0.422007,-1.20263 0,-0.511638 -0.131131,-0.902473 -0.391024,-1.19335 -0.271263,-0.29097 -0.632441,-0.431197 -1.09225,-0.431197l-0.0021792 0.00104223 0 0zm0.972586 1.64425c0,0.381549 -0.0804409,0.681805 -0.250513,0.882955 -0.170072,0.210435 -0.42087,0.322048 -0.752108,0.322048 -0.322048,0 -0.571424,-0.111613 -0.762246,-0.322048 -0.18978,-0.211572 -0.280643,-0.501405 -0.280643,-0.882955 0,-0.402394 0.100148,-0.712693 0.301393,-0.92218 0.189496,-0.200013 0.440293,-0.301108 0.752013,-0.301108 0.310204,0 0.559865,0.101096 0.740264,0.301108 0.160976,0.220668 0.250703,0.520923 0.250703,0.92218l0.00113697 0zm1.35442 1.56476l0.500079 0 0 -2.70751 0.7324 0 0 -0.420964 -0.732495 0 0 -0.48274c0,-0.439156 0.170167,-0.659824 0.521966,-0.659824 0.118529,0 0.239333,0.0298456 0.329059,0.0804409l0 -0.451757c-0.0897262,-0.0402678 -0.21053,-0.0494583 -0.361179,-0.0494583 -0.270126,0 -0.490794,0.0806304 -0.671478,0.250513 -0.21053,0.200107 -0.321858,0.460001 -0.321858,0.811799l0 0.512775 -0.528882 0 0 0.420964 0.528882 0 0 2.69728 0.00350567 -0.00151596 0 0zm2.05442 -0.853109c0,0.611692 0.270315,0.923222 0.822032,0.923222 0.200202,0 0.350851,-0.0321195 0.47156,-0.10337l0 -0.43006c-0.0920001,0.0690711 -0.201244,0.101285 -0.321953,0.101285 -0.169978,0 -0.289644,-0.0403626 -0.359852,-0.131226 -0.0712503,-0.0895367 -0.111423,-0.241417 -0.111423,-0.450715l0 -1.76468 0.793134 0 0 -0.420964 -0.793323 0 0 -0.921896c-0.172346,0.0596911 -0.341282,0.110381 -0.501216,0.160692l0 0.761204 -0.540347 0 0 0.420964 0.540347 -9.47478e-005 0 1.85459 0.00104223 0.00104223zm53.8067 5.76464c-0.170262,-0.160882 -0.371506,-0.241323 -0.620788,-0.241323 -0.252977,0 -0.462274,0.0804409 -0.632347,0.252787 -0.170072,0.16903 -0.250797,0.379275 -0.250797,0.620977 0,0.250703 0.0807251,0.460001 0.249471,0.620788 0.170262,0.160976 0.37937,0.241607 0.632252,0.241607 0.24966,0 0.459906,-0.0806304 0.632536,-0.250703 0.168935,-0.17263 0.258567,-0.371506 0.258567,-0.620882 -0.00909579,-0.252882 -0.0999589,-0.462369 -0.270031,-0.623156l0.00113697 -9.47478e-005 0 0zm-0.0805356 1.18425c-0.149417,0.149417 -0.331049,0.218299 -0.551906,0.218299 -0.218299,0 -0.400025,-0.0688816 -0.551811,-0.218299 -0.149417,-0.151596 -0.229953,-0.341471 -0.229953,-0.56337 0,-0.218773 0.0690711,-0.39993 0.220857,-0.551811 0.149323,-0.149323 0.329912,-0.218394 0.560907,-0.218394 0.218678,0 0.400215,0.0690711 0.551906,0.218394 0.149417,0.151881 0.229953,0.333038 0.229953,0.551811 0,0.232322 -0.0688816,0.411774 -0.229953,0.56337l0 0zm-0.450715 -0.511638c0.0897262,-0.0207498 0.160976,-0.0609228 0.210435,-0.110381 0.0506901,-0.0517323 0.0690711,-0.122035 0.0690711,-0.202192 0,-0.0899157 -0.0288033,-0.161071 -0.0897262,-0.21053 -0.0688816,-0.0575119 -0.180305,-0.0885892 -0.321858,-0.0885892l-0.319584 0 0 1.12219 0.161071 0 0 -0.471465 0.0999589 0c0.0690711,0 0.137953,0.0690711 0.200107,0.200202l0.119287 0.270126 0.191106 0 -0.149417 -0.301298c-0.051827,-0.131036 -0.111518,-0.191201 -0.172441,-0.210435l0.0019897 0.00236869 0 0zm-0.110286 -0.101001l-0.172441 0 0 -0.379465 0.141458 0c0.100054,0 0.170167,0.0183811 0.21034,0.0493636 0.0402678,0.0298456 0.0495531,0.0690711 0.0495531,0.140321 0,0.129994 -0.0806304,0.18978 -0.229953,0.18978l0.00104223 0z"/>
   <path id="_397679456" class="fil1" d="M-0 0l112.75 0 0 38.8466 -112.75 0 0 -38.8466zm56.3749 0m56.3749 19.4233m-56.3749 19.4233m-56.3749 -19.4233"/>
  </g>
 </g>
</svg>
