<?xml version="1.0" encoding="UTF-8" standalone="no"?>
<svg
   xmlns:dc="http://purl.org/dc/elements/1.1/"
   xmlns:cc="http://creativecommons.org/ns#"
   xmlns:rdf="http://www.w3.org/1999/02/22-rdf-syntax-ns#"
   xmlns:svg="http://www.w3.org/2000/svg"
   xmlns="http://www.w3.org/2000/svg"
   xmlns:sodipodi="http://sodipodi.sourceforge.net/DTD/sodipodi-0.dtd"
   xmlns:inkscape="http://www.inkscape.org/namespaces/inkscape"
   width="3500"
   height="2500"
   viewBox="0 0 269.8584 192.756"
   version="1.1"
   id="svg34"
   sodipodi:docname="mysql-1.svg"
   inkscape:version="1.0.2-2 (e86c870879, 2021-01-15)">
  <metadata
     id="metadata40">
    <rdf:RDF>
      <cc:Work
         rdf:about="">
        <dc:format>image/svg+xml</dc:format>
        <dc:type
           rdf:resource="http://purl.org/dc/dcmitype/StillImage" />
        <dc:title></dc:title>
      </cc:Work>
    </rdf:RDF>
  </metadata>
  <defs
     id="defs38" />
  <sodipodi:namedview
     pagecolor="#ffffff"
     bordercolor="#666666"
     borderopacity="1"
     objecttolerance="10"
     gridtolerance="10"
     guidetolerance="10"
     inkscape:pageopacity="0"
     inkscape:pageshadow="2"
     inkscape:window-width="2560"
     inkscape:window-height="1017"
     id="namedview36"
     showgrid="false"
     inkscape:zoom="0.1654"
     inkscape:cx="704.46716"
     inkscape:cy="1496.245"
     inkscape:window-x="-8"
     inkscape:window-y="-8"
     inkscape:window-maximized="1"
     inkscape:current-layer="svg34" />
  <path
     fill="#ffffff"
     d="M -1.542048,0 H 191.214 V 192.756 H -1.542048 Z"
     id="path26"
     style="clip-rule:evenodd;fill:none;fill-rule:evenodd" />
  <path
     d="m 4.3280232,156.14442 h 8.5257718 v -36.56518 l 13.313242,31.88033 c 1.508907,3.83306 3.673521,5.25271 7.870071,5.25271 4.198093,0 6.231568,-1.41965 7.805271,-5.25271 l 13.248444,-31.88033 v 36.56518 h 8.592126 v -36.56518 c 0,-3.54914 -1.311423,-5.25272 -4.06695,-6.17465 -6.492308,-2.12949 -10.821543,-0.28393 -12.788675,4.47274 L 33.774825,149.4019 21.182092,117.87733 c -1.902331,-4.75667 -6.297908,-6.60223 -12.8565531,-4.47274 -2.6891825,0.9236 -4.0006015,2.62551 -4.0006015,6.17465 v 36.56518 z M 70.767709,126.3969 h 8.590581 v 20.09055 c -0.06479,1.13906 0.328627,3.69277 4.983403,3.76459 2.4269,0.0717 18.495717,0 18.626857,0 v -23.99878 h 8.59213 v 32.87576 c 0,8.09367 -9.24784,9.86742 -13.575577,9.93924 H 70.963651 v -6.17799 h 27.087795 c 5.509564,-0.63969 4.853854,-3.62095 4.853854,-4.61638 v -2.4134 H 84.736659 c -8.460981,-0.0684 -13.904151,-4.11699 -13.96895,-8.73337 0,-0.42422 0.195942,-20.58994 0,-20.73022 z M 255.06906,103.10793 c -5.24567,-0.14192 -9.31418,0.42591 -12.7254,1.98752 -0.9828,0.42757 -2.55806,0.42757 -2.68765,1.77374 0.52457,0.5712 0.59092,1.49146 1.04914,2.27309 0.78684,1.41966 2.16307,3.33704 3.41123,4.33245 1.37777,1.13571 2.75399,2.26977 4.19811,3.2652 2.55803,1.70358 5.4416,2.69733 7.93485,4.40091 1.44411,0.99543 2.88668,2.27311 4.33078,3.33702 0.72051,0.56786 1.18183,1.49148 2.09673,1.84554 v -0.21211 c -0.45823,-0.63968 -0.58783,-1.56329 -1.04912,-2.27311 -0.65417,-0.70816 -1.31144,-1.34782 -1.96715,-2.05765 -1.90078,-2.76915 -4.26136,-5.18424 -6.81939,-7.17009 -2.09982,-1.56327 -6.6898,-3.69276 -7.54299,-6.3216 l -0.13267,-0.14029 c 1.4441,-0.14028 3.14896,-0.70815 4.52669,-1.13572 2.22945,-0.63968 4.26445,-0.49937 6.55712,-1.13571 a 58.257967,63.065888 0 0 0 3.14896,-0.99543 v -0.63968 c -1.18183,-1.27768 -2.0304,-2.98294 -3.27856,-4.18881 -3.3449,-3.12333 -7.01842,-6.17651 -10.82154,-8.733635 -2.03347,-1.419685 -4.6594,-2.343335 -6.82247,-3.549245 -0.78686,-0.425915 -2.09673,-0.63969 -2.55805,-1.349545 -1.18183,-1.56333 -1.83444,-3.621055 -2.68764,-5.466665 -1.9008,-3.904995 -3.73986,-8.235809 -5.37837,-12.352795 -1.18184,-2.769153 -1.90078,-5.538309 -3.34488,-8.093678 -6.75614,-12.07037 -14.10319,-19.382406 -25.38142,-26.554146 -2.42845,-1.491467 -5.31203,-2.129477 -8.39464,-2.91112 -1.63851,-0.07014 -3.27856,-0.212112 -4.92016,-0.283928 -1.04912,-0.497714 -2.09672,-1.845547 -3.01624,-2.485226 -3.73679,-2.55537 -13.37959,-8.093676 -16.13358,-0.779971 -1.77119,4.6147 2.62439,9.157579 4.13173,11.50251 1.1155,1.633433 2.55806,3.478978 3.3449,5.324525 0.45824,1.205868 0.59093,2.485222 1.04915,3.762908 1.05222,3.123231 2.03347,6.60221 3.41123,9.513328 0.7236,1.491468 1.51046,3.053086 2.42845,4.400916 0.52457,0.781645 1.44103,1.135723 1.6385,2.415076 -0.91952,1.419653 -0.98588,3.549128 -1.51044,5.324525 -2.35902,8.023591 -1.44411,17.963146 1.9008,23.857396 1.05221,1.775445 3.54391,5.680455 6.88881,4.188935 2.94992,-1.27774 2.29267,-5.3247 3.14587,-8.873945 0.19903,-0.85349 0.0662,-1.42137 0.46131,-1.987585 v 0.141985 c 0.91954,1.98757 1.83445,3.904995 2.68764,5.89259 2.03348,3.47908 5.57431,7.10015 8.52732,9.51355 1.57372,1.27767 2.82034,3.47898 4.78902,4.26062 v -0.21547 h -0.13269 c -0.39496,-0.63634 -0.98279,-0.9236 -1.50735,-1.41965 -1.18183,-1.27767 -2.49477,-2.84095 -3.41124,-4.25894 -2.75706,-3.976795 -5.18244,-8.379515 -7.34706,-12.922565 -1.04911,-2.19968 -1.96712,-4.61484 -2.82032,-6.8162 -0.39496,-0.85182 -0.39496,-2.12955 -1.04914,-2.555455 -0.98588,1.56167 -2.42844,2.911215 -3.14893,4.82697 -1.24511,3.053185 -1.37779,6.81621 -1.83445,10.721215 -0.26539,0.07021 -0.1327,0 -0.26539,0.141975 -2.09673,-0.56789 -2.81723,-2.911215 -3.60717,-4.8988 -1.96714,-5.04242 -2.29267,-13.136355 -0.58784,-18.956936 0.45824,-1.491467 2.42537,-6.177984 1.63852,-7.597635 -0.39497,-1.349504 -1.70485,-2.129475 -2.42846,-3.195048 -0.85319,-1.349503 -1.7681,-3.053084 -2.35901,-4.544552 -1.57524,-3.975022 -2.3621,-8.377608 -4.06849,-12.3543 -0.78684,-1.845546 -2.16308,-3.76291 -3.27855,-5.466489 -1.24508,-1.917365 -2.62437,-3.266868 -3.6072,-5.538308 -0.32861,-0.781644 -0.78683,-2.05933 -0.26228,-2.911118 0.13269,-0.567861 0.3919,-0.781643 0.91955,-0.921939 0.8532,-0.781642 3.27856,0.212112 4.13176,0.638007 2.42537,1.065574 4.46037,2.05766 6.49384,3.549127 0.91644,0.709824 1.90077,2.059329 3.08261,2.415076 h 1.37777 c 2.09672,0.496043 4.46037,0.141957 6.4275,0.779973 3.4745,1.205868 6.62346,2.982937 9.44379,4.89863 8.59058,5.892383 15.67534,14.271663 20.46433,24.282705 0.78686,1.633432 1.1155,3.123229 1.83445,4.828482 1.37777,3.478979 3.08262,7.028115 4.46038,10.437055 1.37777,3.337125 2.68764,6.744395 4.65633,9.513645 0.98586,1.49151 4.92013,2.271505 6.68979,3.05317 1.31451,0.63803 3.34797,1.20758 4.5267,1.987585 2.22942,1.49151 4.46037,3.195145 6.5602,4.828635 1.04451,0.85349 4.32306,2.628895 4.52209,4.048545 z"
     id="path28"
     style="clip-rule:evenodd;fill-rule:evenodd;stroke-width:1.60525" />
  <path
     d="m 188.1696,41.407475 c -1.11548,0 -1.90078,0.141973 -2.68766,0.354078 v 0.141973 h 0.12954 c 0.52457,1.135718 1.44412,1.915692 2.09673,2.911118 0.52767,1.13572 0.9859,2.27144 1.51047,3.408831 l 0.13266,-0.141972 c 0.91954,-0.711495 1.37779,-1.845545 1.37779,-3.550795 -0.39499,-0.497714 -0.45825,-0.993757 -0.78686,-1.49147 -0.39651,-0.708155 -1.24971,-1.06223 -1.77274,-1.631763 z M 118.12242,156.14442 h 24.65966 c 2.88666,0 5.64065,-0.63634 7.8716,-1.77373 3.73988,-1.84555 5.51107,-4.32909 5.51107,-7.59764 v -6.81431 c 0,-2.62552 -2.03348,-5.11242 -6.10196,-6.81766 -2.09673,-0.8518 -4.72267,-1.34785 -7.28071,-1.34785 H 132.4201 c -3.47613,0 -5.11617,-1.13571 -5.57595,-3.62094 -0.0647,-0.28394 -0.0647,-0.56786 -0.0647,-0.85179 v -4.18881 c 0,-0.21546 0,-0.49938 0.0647,-0.78332 0.45978,-1.91736 1.37778,-2.4134 4.39564,-2.76913 h 25.2505 v -6.17465 H 132.4849 c -3.47613,0 -5.31213,0.2121 -6.95216,0.77997 -5.04977,1.70359 -7.28073,4.40425 -7.28073,9.15925 v 5.39467 c 0,4.18879 4.32925,7.73794 11.67479,8.59305 0.78687,0.0684 1.64008,0.0684 2.4933,0.0684 h 8.85462 c 0.32861,0 0.65416,0 0.91954,0.0719 2.68764,0.28393 3.86945,0.78331 4.65631,1.84554 0.52455,0.56787 0.65417,1.06725 0.65417,1.70358 v 5.39803 c 0,0.63632 -0.39189,1.49144 -1.17874,2.19794 -0.78684,0.71148 -2.03346,1.20753 -3.67352,1.27936 -0.32864,0 -0.52458,0.0719 -0.8532,0.0719 h -23.67686 z m 91.42952,-10.7192 c 0,6.31828 4.39404,9.86741 13.18055,10.57891 0.8532,0.0719 1.64159,0.14027 2.4917,0.14027 h 22.30189 v -6.17463 h -22.49782 c -4.98341,0 -6.88575,-1.35119 -6.88575,-4.61639 v -31.94881 h -8.59057 z m -47.94557,0.28226 v -22.0096 c 0,-5.61011 3.67354,-9.01895 10.82155,-10.08286 0.78684,-0.0719 1.57524,-0.14029 2.29575,-0.14029 h 16.26625 c 0.85321,0 1.5737,0.0684 2.42538,0.14029 7.15109,1.06391 10.75827,4.47275 10.75827,10.08286 v 22.0096 c 0,4.54456 -1.51044,6.95796 -5.04974,8.59306 l 8.39463,8.23397 h -9.90509 l -6.81938,-6.67402 -6.88881,0.42757 h -9.18151 a 19.933607,21.578688 0 0 1 -4.9834,-0.71151 c -5.44625,-1.63177 -8.1339,-4.75666 -8.1339,-9.86907 z m 9.24784,-0.49438 c 0,0.28394 0.12968,0.56788 0.19594,0.92362 0.46133,2.5537 2.69073,3.97335 6.0989,3.97335 h 7.74201 l -7.08477,-6.95796 h 9.90201 l 6.23157,6.10617 c 1.18181,-0.71151 1.90387,-1.70359 2.16615,-2.98126 0.0632,-0.28393 0.0632,-0.63969 0.0632,-0.92361 v -21.08599 c 0,-0.28394 0,-0.56786 -0.0632,-0.8518 -0.46132,-2.4134 -2.69072,-3.76457 -6.03563,-3.76457 h -12.92134 c -3.80312,0 -6.29484,1.77373 -6.29484,4.61637 z m 80.60767,11.00147 h 1.24507 v -5.18423 h 1.63852 v -1.06391 h -4.58997 v 1.06391 h 1.70483 v 5.18423 z m 9.51014,0 h 1.17872 v -6.24647 h -1.7681 l -1.44412,4.26063 -1.57368,-4.26063 h -1.70795 v 6.24647 h 1.11857 v -4.75666 h 0.0632 l 1.6385,4.75666 h 0.85319 l 1.6416,-4.75666 z"
     id="path30"
     style="clip-rule:evenodd;fill-rule:evenodd;stroke-width:1.60525" />
</svg>
