<?xml version="1.0" encoding="UTF-8"?>
<!DOCTYPE svg PUBLIC "-//W3C//DTD SVG 1.1//EN" "http://www.w3.org/Graphics/SVG/1.1/DTD/svg11.dtd">
<!-- Creator: CorelDRAW -->
<svg xmlns="http://www.w3.org/2000/svg" xml:space="preserve" width="1264.62mm" height="324.812mm" style="shape-rendering:geometricPrecision; text-rendering:geometricPrecision; image-rendering:optimizeQuality; fill-rule:evenodd; clip-rule:evenodd"
viewBox="0 0 2926.23 751.588"
 xmlns:xlink="http://www.w3.org/1999/xlink">
 <defs>
  <style type="text/css">
   <![CDATA[
    .fil2 {fill:#E8E5E5}
    .fil0 {fill:white}
    .fil1 {fill:white;fill-rule:nonzero}
   ]]>
  </style>
 </defs>
 <g id="Capa_x0020_1">
  <metadata id="CorelCorpID_0Corel-Layer"/>
  <path class="fil0" d="M215.306 264.422l189.067 189.373c7.41078,7.4168 8.7635,17.6809 3.48823,26.7345l-85.0304 145.898c-5.27295,9.05088 -17.1595,7.7257 -26.7359,3.4873l-288.047 -127.434c-9.57637,-4.2384 -10.4372,-18.8834 -3.48684,-26.7334l184.008 -207.839c6.95008,-7.85251 19.3263,-10.9053 26.7361,-3.48707z"/>
  <path class="fil0" d="M451.635 4.79073l115.819 171.73c5.86277,8.68829 8.84055,17.7403 3.48707,26.7359l-124.237 208.666c-5.35163,8.99026 -19.2724,10.8238 -26.7359,3.48707l-175.589 -172.558c-7.46608,-7.33627 -10.4372,-18.8834 -3.48846,-26.7345l184.01 -207.837c6.94985,-7.85251 20.8715,-12.1765 26.7345,-3.48823z"/>
  <path class="fil0" d="M458.141 508.203l152.262 151.632c7.42651,7.39065 8.33033,17.4772 3.4873,26.7359l-30.3752 58.0923c-4.84673,9.26932 -17.2706,7.9483 -26.7334,3.48684l-190.152 -89.6182c-9.45929,-4.46331 -8.67001,-17.6223 -3.4873,-26.7359l68.2622 -120.105c5.18294,-9.11359 19.3122,-10.8782 26.7361,-3.4873z"/>
  <g id="_715659936">
   <path id="_715645824" class="fil1" d="M2690.82 167.882c64.3216,0 119.661,22.5491 165.921,67.5492 46.3649,44.998 69.4932,99.8943 69.4932,164.584 0,64.1809 -22.8131,118.464 -68.5435,162.849 -45.624,44.389 -101.074,66.6336 -166.238,66.6336 -68.3327,0 -125.043,-22.8599 -170.143,-68.469 -45.2024,-45.6089 -67.8026,-99.7918 -67.8026,-162.542 0,-41.9386 10.5603,-80.6111 31.5785,-115.915 21.0161,-35.2023 49.9547,-63.1614 86.7089,-83.7707 36.8586,-20.6138 76.568,-30.9185 119.026,-30.9185zm-1913.41 0c64.3216,0 119.66,22.5491 165.921,67.5492 46.3649,44.998 69.4929,99.8943 69.4929,164.584 0,64.1809 -22.8428,130.497 -68.5435,174.904 -45.6432,44.3573 -101.074,54.5788 -166.238,54.5788 -68.333,0 -125.043,-22.8599 -170.143,-68.469 -45.2024,-45.6089 -67.8026,-99.7918 -67.8026,-162.542 0,-41.9386 10.5603,-80.6111 31.5785,-115.915 21.0161,-35.2023 49.9544,-63.1614 86.7087,-83.7707 36.8586,-20.6138 76.5703,-30.9185 119.026,-30.9185zm-1.26479 72.9976c-41.9342,0 -77.1876,14.2095 -105.724,42.4453 -28.5914,28.2869 -42.8755,73.2232 -42.8755,116.895 0,48.5684 18.0057,99.0382 53.9659,127.355 28.0336,22.0787 59.989,33.1626 96.2152,33.1626 40.8739,0 75.7058,-14.4203 104.45,-43.0585 28.7978,-28.6979 43.199,-76.0337 43.199,-118.07 0,-41.8363 -14.499,-86.2616 -43.512,-115.262 -28.9596,-28.9489 -64.2151,-43.4671 -105.719,-43.4671zm282.156 -61.9796l86.1807 0 0 375.056 202.709 0 0 64.5196 -288.89 0 0 -439.576zm410.535 67.0064l0 372.569 -86.1809 0 0 -372.054c12.8469,6.31051 27.295,9.86191 42.571,9.86191 15.6914,0 30.5076,-3.74091 43.6099,-10.3772zm83.8346 -67.0064l120.129 0 111.962 306.621 112.484 -306.621 119.916 0 28.0336 439.576 -83.5386 0 -15.4294 -349.969 -126.459 349.969 -73.4509 0 -123.02 -349.969 -16.3855 349.969 -84.4901 0 30.2498 -439.576zm556.098 0l91.989 0c49.7436,0 133.802,4.42213 155.734,13.2664 49.3968,19.9217 74.2452,68.2538 74.2878,108.494 0.0830696,80.1001 -33.1327,135.275 -113.982,151.148 -43.3906,8.52053 -92.3465,4.66254 -121.849,4.66254l0 162.006 -86.1788 0 0 -439.576zm86.1788 226.283l27.7781 0c43.976,0 129.173,-15.2165 128.675,-77.1471 -0.653681,-81.6056 -72.5547,-85.7912 -131.843,-85.7912l-24.6099 0 0 162.938zm494.606 -164.303c-41.9323,0 -77.1855,14.2095 -105.722,42.4453 -28.5912,28.2869 -42.8773,73.2232 -42.8773,116.895 0,48.5684 18.0076,99.0382 53.9677,127.355 28.0315,22.0787 59.989,33.1626 96.2173,33.1626 40.8721,0 75.7037,-14.4203 104.448,-43.0585 28.7981,-28.6979 43.199,-76.0337 43.199,-118.07 0,-41.8363 -14.499,-86.2616 -43.5118,-115.262 -28.9598,-28.9489 -64.2172,-43.4671 -105.721,-43.4671z"/>
   <circle id="_715646664" class="fil2" cx="1425.76" cy="152.456" r="59.364"/>
  </g>
 </g>
</svg>
