<?xml version="1.0" encoding="UTF-8"?>
<!DOCTYPE svg PUBLIC "-//W3C//DTD SVG 1.1//EN" "http://www.w3.org/Graphics/SVG/1.1/DTD/svg11.dtd">
<!-- Creator: CorelDRAW -->
<svg xmlns="http://www.w3.org/2000/svg" xml:space="preserve" width="1264.62mm" height="324.812mm" style="shape-rendering:geometricPrecision; text-rendering:geometricPrecision; image-rendering:optimizeQuality; fill-rule:evenodd; clip-rule:evenodd"
viewBox="0 0 4693.01 1205.38"
 xmlns:xlink="http://www.w3.org/1999/xlink">
 <defs>
  <style type="text/css">
   <![CDATA[
    .fil2 {fill:#C4C2C2}
    .fil0 {fill:#E0E0E0}
    .fil1 {fill:#C4C2C2;fill-rule:nonzero}
   ]]>
  </style>
 </defs>
 <g id="Capa_x0020_1">
  <metadata id="CorelCorpID_0Corel-Layer"/>
  <path class="fil0" d="M345.302 424.073l303.221 303.711c11.8852,11.8949 14.0547,28.3561 5.59433,42.8761l-136.369 233.987c-8.45662,14.5156 -27.52,12.3903 -42.8783,5.59284l-461.962 -204.375c-15.3583,-6.79743 -16.7388,-30.2847 -5.5921,-42.8742l295.108 -333.326c11.1463,-12.5936 30.995,-17.4895 42.8787,-5.59247z"/>
  <path class="fil0" d="M724.32 7.68287l185.747 275.415c9.40255,13.934 14.1782,28.4515 5.59247,42.8783l-199.249 334.652c-8.58279,14.4183 -30.9085,17.3589 -42.8783,5.59247l-281.604 -276.744c-11.9739,-11.7657 -16.7388,-30.2847 -5.5947,-42.8761l295.11 -333.324c11.146,-12.5936 33.4732,-19.5284 42.8761,-5.59433z"/>
  <path class="fil0" d="M734.753 815.042l244.194 243.183c11.9104,11.8529 13.36,28.0295 5.59284,42.8783l-48.715 93.1668c-7.77305,14.8659 -27.6981,12.7473 -42.8742,5.5921l-304.96 -143.727c-15.1705,-7.15814 -13.9047,-28.2622 -5.59284,-42.8783l109.477 -192.622c8.31226,-14.6161 30.9723,-17.4461 42.8787,-5.59284z"/>
  <g id="_715661664">
   <path id="_715661520" class="fil1" d="M4315.45 269.244c103.157,0 191.909,36.1636 266.1,108.334 74.3587,72.1666 111.451,160.208 111.451,263.956 0,102.932 -36.5871,189.989 -109.928,261.172 -73.1704,71.1899 -162.099,106.865 -266.609,106.865 -109.59,0 -200.54,-36.662 -272.871,-109.809 -72.4943,-73.1463 -108.74,-160.043 -108.74,-260.681 0,-67.2599 16.9362,-129.282 50.6447,-185.902 33.7051,-56.4565 80.1159,-101.296 139.061,-134.349 59.1128,-33.0598 122.798,-49.5863 190.891,-49.5863zm-3068.67 0c103.157,0 191.908,36.1636 266.1,108.334 74.3587,72.1666 111.451,160.208 111.451,263.956 0,102.932 -36.6346,209.288 -109.928,280.506 -73.2012,71.139 -162.099,87.532 -266.608,87.532 -109.591,0 -200.54,-36.662 -272.871,-109.809 -72.4943,-73.1463 -108.74,-160.043 -108.74,-260.681 0,-67.2599 16.9362,-129.282 50.6447,-185.902 33.7051,-56.4565 80.1156,-101.296 139.061,-134.349 59.1128,-33.0598 122.801,-49.5863 190.891,-49.5863zm-2.02843 117.072c-67.2529,0 -123.791,22.7889 -169.556,68.0726 -45.8542,45.3658 -68.7625,117.433 -68.7625,187.473 0,77.8927 28.8771,158.835 86.5489,204.248 44.9594,35.4092 96.2087,53.1852 154.307,53.1852 65.5525,0 121.415,-23.1269 167.515,-69.0561 46.1852,-46.0249 69.2813,-121.941 69.2813,-189.358 0,-67.0959 -23.2531,-138.344 -69.7834,-184.854 -46.4446,-46.4275 -102.986,-69.7114 -169.55,-69.7114zm452.514 -99.4012l138.214 0 0 601.505 325.1 0 0 103.475 -463.314 0 0 -704.98zm658.405 107.463l0 597.517 -138.215 0 0 -596.69c20.6034,10.1206 43.7749,15.8163 68.2741,15.8163 25.1654,0 48.9272,-5.99957 69.9404,-16.6427zm134.452 -107.463l192.66 0 179.561 491.751 180.398 -491.751 192.318 0 44.9594 704.98 -133.977 0 -24.7453 -561.271 -202.811 561.271 -117.798 0 -197.297 -561.271 -26.2787 561.271 -135.503 0 48.5138 -704.98zm891.855 0l147.529 0c79.7775,0 214.588,7.09208 249.761,21.2762 79.2212,31.9498 119.072,109.464 119.141,173.999 0.133225,128.462 -53.1374,216.951 -182.802,242.406 -69.5886,13.665 -148.103,7.47766 -195.418,7.47766l0 259.821 -138.211 0 0 -704.98zm138.211 362.906l44.5498 0c70.5275,0 207.164,-24.4039 206.365,-123.726 -1.04836,-130.877 -116.361,-137.59 -211.447,-137.59l-39.4687 0 0 261.316zm793.236 -263.505c-67.2499,0 -123.788,22.7889 -169.554,68.0726 -45.8538,45.3658 -68.7655,117.433 -68.7655,187.473 0,77.8927 28.8801,158.835 86.5519,204.248 44.9561,35.4092 96.2087,53.1852 154.311,53.1852 65.5495,0 121.412,-23.1269 167.511,-69.0561 46.1856,-46.0249 69.2813,-121.941 69.2813,-189.358 0,-67.0959 -23.2531,-138.344 -69.783,-184.854 -46.445,-46.4275 -102.99,-69.7114 -169.553,-69.7114z"/>
   <circle id="_715661568" class="fil2" cx="2286.6" cy="244.504" r="95.2063"/>
  </g>
 </g>
</svg>
